# xmcd
#
# Track frame offsets:
#	150
#	25043
#	54623
#	110351
#	129623
#	147349
#	180303
#	204667
#	231035
#	252033
#	281171
#
# Disc length: 3998 seconds
#
# Revision: 2
# Processed by: cddbd v1.4PL0 Copyright (c) Steve Scherf et al.
# Submitted via: audiograbber 1.80
#
DISCID=990f9c0b
DTITLE=Various Artist - Best Of Budweiser Blues On The Mall 2001
DYEAR=1900
DGENRE=
TTITLE0=Coco Montoya - Too Much Wine, Too Much Beer
TTITLE1=Coco Montoya - Good Days, Bad Days
TTITLE2=Larry McCray - Like You Used To Do
TTITLE3=Smokin' Joe Kubek - Got My Mind Back
TTITLE4=Smokin' Joe Kubek - Encore Boogie
TTITLE5=Scott Holt - Tore Down
TTITLE6=Chicago Rhythm and Blues Kings - Poor Man's Blues
TTITLE7=Duke Robillard - I Tried
TTITLE8=Dave Hole - Jenny Lee
TTITLE9=Dave Hole - How Long
TTITLE10=Roomful of Blues - She's So Fine
EXTD=
EXTT0=Coco Montoya
EXTT1=Coco Montoya
EXTT2=Larry McCray
EXTT3=Smokin' Joe Kubek
EXTT4=Smokin' Joe Kubek
EXTT5=Scott Holt
EXTT6=chicago Rhythm and Blues Kings
EXTT7=Duke Robillard
EXTT8=Dave Hole
EXTT9=Dave Hole
EXTT10=Roomful of Blues
PLAYORDER=
